HIERARCHY
ROOT joint_0
{
	OFFSET 0.000000 0.000000 0.000000
	CHANNELS 6 Xposition Yposition Zposition Zrotation Yrotation Xrotation 
	JOINT joint_1
	{
		OFFSET 14.113007 -2.961990 123.953979
		CHANNELS 3 Zrotation Yrotation Xrotation
		JOINT joint_2
		{
			OFFSET 0.764000 -2.434006 113.871948
			CHANNELS 3 Zrotation Yrotation Xrotation
			JOINT joint_3
			{
				OFFSET 0.186996 -2.169998 113.753052
				CHANNELS 3 Zrotation Yrotation Xrotation
				JOINT joint_4
				{
					OFFSET 16.096001 -2.720001 160.853027
					CHANNELS 3 Zrotation Yrotation Xrotation
					JOINT joint_5
					{
						OFFSET 34.392006 -0.188995 92.567017
						CHANNELS 3 Zrotation Yrotation Xrotation
						End Site
						{
							OFFSET 0.000000 0.000000 0.000000
						}
					}
				}
				JOINT joint_6
				{
					OFFSET 9.183998 -36.684006 89.597046
					CHANNELS 3 Zrotation Yrotation Xrotation
					JOINT joint_7
					{
						OFFSET 0.486000 -164.365997 -28.984009
						CHANNELS 3 Zrotation Yrotation Xrotation
						JOINT joint_8
						{
							OFFSET 38.899002 -34.967010 -291.651978
							CHANNELS 3 Zrotation Yrotation Xrotation
							JOINT joint_9
							{
								OFFSET 41.714005 -45.890991 -258.857056
								CHANNELS 3 Zrotation Yrotation Xrotation
								End Site
								{
									OFFSET 0.000000 0.000000 0.000000
								}
							}
						}
					}
				}
				JOINT joint_10
				{
					OFFSET 8.867004 33.650002 90.817993
					CHANNELS 3 Zrotation Yrotation Xrotation
					JOINT joint_11
					{
						OFFSET 0.018997 164.299999 -29.368042
						CHANNELS 3 Zrotation Yrotation Xrotation
						JOINT joint_12
						{
							OFFSET 29.440994 30.887997 -293.216919
							CHANNELS 3 Zrotation Yrotation Xrotation
							JOINT joint_13
							{
								OFFSET 46.174011 54.490005 -256.422058
								CHANNELS 3 Zrotation Yrotation Xrotation
								End Site
								{
									OFFSET 0.000000 0.000000 0.000000
								}
							}
						}
					}
				}
			}
		}
	}
	JOINT joint_14
	{
		OFFSET -2.264000 -89.466995 -116.150024
		CHANNELS 3 Zrotation Yrotation Xrotation
		JOINT joint_15
		{
			OFFSET -16.400993 -17.452988 -493.781982
			CHANNELS 3 Zrotation Yrotation Xrotation
			JOINT joint_16
			{
				OFFSET -50.497004 -13.404022 -424.754013
				CHANNELS 3 Zrotation Yrotation Xrotation
				JOINT joint_17
				{
					OFFSET 198.546007 -19.341003 -89.309000
					CHANNELS 3 Zrotation Yrotation Xrotation
					End Site
					{
						OFFSET 0.000000 0.000000 0.000000
					}
				}
			}
		}
	}
	JOINT joint_18
	{
		OFFSET -0.867996 96.016006 -110.817993
		CHANNELS 3 Zrotation Yrotation Xrotation
		JOINT joint_19
		{
			OFFSET -10.130997 24.658998 -493.645020
			CHANNELS 3 Zrotation Yrotation Xrotation
			JOINT joint_20
			{
				OFFSET -48.871004 19.434999 -424.714005
				CHANNELS 3 Zrotation Yrotation Xrotation
				JOINT joint_21
				{
					OFFSET 195.579996 24.926001 -94.327003
					CHANNELS 3 Zrotation Yrotation Xrotation
					End Site
					{
						OFFSET 0.000000 0.000000 0.000000
					}
				}
			}
		}
	}
}
MOTION
Frames: 18
Frame Time: 0.016667
-2937.027588 877.770752 1145.787964 6.483766 -2.357019 -1.737165 -0.445082 -1.352768 2.381074 -0.375076 0.188067 -0.534151 -0.384556 -0.286699 0.359870 -1.405767 5.104019 3.684856 0.000000 0.000000 0.000000 -2.278980 1.391534 0.602053 -0.175223 1.014960 -1.028696 0.144579 -2.153696 -1.468124 0.000000 0.000000 0.000000 -0.792739 0.193129 0.221797 0.131067 0.357914 2.649277 -0.343730 -0.941319 -0.772085 0.000000 0.000000 0.000000 3.510731 -0.647663 1.743398 3.541885 0.292484 0.066829 3.503267 -2.939696 1.284496 0.000000 0.000000 0.000000 -3.883714 -0.161041 0.454272 -3.856643 -0.063174 -0.611659 -3.810747 -1.484671 -1.638791 0.000000 0.000000 0.000000 
-2936.937744 877.922607 1145.755981 6.463304 -2.351187 -1.737167 -0.446167 -1.347112 2.371997 -0.376557 0.186313 -0.533286 -0.385948 -0.283465 0.358905 -1.412279 5.124602 3.702419 0.000000 0.000000 0.000000 -2.282251 1.385710 0.657951 -0.179458 1.008924 -1.064095 0.143625 -2.150760 -1.471017 0.000000 0.000000 0.000000 -0.791117 0.189490 0.186117 0.136266 0.354955 2.682017 -0.339524 -0.916646 -0.778673 0.000000 0.000000 0.000000 3.517640 -0.652561 1.730532 3.547719 0.294565 0.076992 3.509783 -2.931404 1.288246 0.000000 0.000000 0.000000 -3.875236 -0.163626 0.448836 -3.847685 -0.056533 -0.617111 -3.803369 -1.488390 -1.634769 0.000000 0.000000 0.000000 
-2936.855957 878.076111 1145.723022 6.440412 -2.345832 -1.737455 -0.445916 -1.341535 2.362839 -0.376696 0.184837 -0.531919 -0.385997 -0.279943 0.357825 -1.417949 5.143335 3.717778 0.000000 0.000000 0.000000 -2.288814 1.381201 0.715319 -0.183924 1.003652 -1.099942 0.142250 -2.147719 -1.476393 0.000000 0.000000 0.000000 -0.791003 0.187565 0.151409 0.142573 0.354172 2.715950 -0.333771 -0.887293 -0.782340 0.000000 0.000000 0.000000 3.525610 -0.657372 1.719522 3.554844 0.295764 0.083521 3.516943 -2.920616 1.292530 0.000000 0.000000 0.000000 -3.865854 -0.166751 0.442959 -3.837746 -0.048272 -0.621394 -3.794997 -1.492092 -1.630272 0.000000 0.000000 0.000000 
-2936.782959 878.226196 1145.689941 6.414424 -2.341553 -1.737815 -0.444585 -1.335698 2.353023 -0.375765 0.184164 -0.529649 -0.384996 -0.276891 0.356147 -1.422950 5.163732 3.731341 0.000000 0.000000 0.000000 -2.296614 1.377984 0.776453 -0.188764 0.999496 -1.136265 0.139884 -2.144629 -1.487829 0.000000 0.000000 0.000000 -0.790157 0.187377 0.117655 0.150221 0.355231 2.751623 -0.326021 -0.851987 -0.782122 0.000000 0.000000 0.000000 3.535057 -0.662763 1.712348 3.563779 0.298405 0.082798 3.524841 -2.906882 1.297440 0.000000 0.000000 0.000000 -3.855352 -0.170041 0.435780 -3.826635 -0.037467 -0.622883 -3.785346 -1.496506 -1.625072 0.000000 0.000000 0.000000 
-2936.719238 878.377991 1145.656982 6.386220 -2.338100 -1.738450 -0.442696 -1.328527 2.343761 -0.374320 0.182953 -0.528241 -0.383478 -0.274088 0.355086 -1.426689 5.183668 3.741635 0.000000 0.000000 0.000000 -2.304755 1.376122 0.839802 -0.193981 0.996683 -1.173711 0.137134 -2.141675 -1.501780 0.000000 0.000000 0.000000 -0.788016 0.189213 0.084175 0.159030 0.358286 2.789196 -0.316718 -0.811657 -0.779336 0.000000 0.000000 0.000000 3.545553 -0.667744 1.706995 3.573998 0.300197 0.078422 3.533367 -2.890511 1.302893 0.000000 0.000000 0.000000 -3.843807 -0.173605 0.428107 -3.814402 -0.024767 -0.623303 -3.774615 -1.501328 -1.619303 0.000000 0.000000 0.000000 
-2936.660645 878.535522 1145.620972 6.354992 -2.334322 -1.738694 -0.440080 -1.322012 2.333571 -0.372147 0.181463 -0.526746 -0.381210 -0.270384 0.354101 -1.429496 5.199413 3.749581 0.000000 0.000000 0.000000 -2.312585 1.375552 0.902734 -0.199339 0.995240 -1.211376 0.134829 -2.137879 -1.512074 0.000000 0.000000 0.000000 -0.785572 0.194471 0.052015 0.168266 0.364777 2.830180 -0.307951 -0.772729 -0.777786 0.000000 0.000000 0.000000 3.556933 -0.674164 1.700794 3.584990 0.302706 0.074467 3.542651 -2.872834 1.308811 0.000000 0.000000 0.000000 -3.831341 -0.179776 0.420523 -3.800862 -0.007924 -0.625480 -3.763041 -1.506434 -1.613091 0.000000 0.000000 0.000000 
-2936.606445 878.699890 1145.579956 6.320076 -2.330355 -1.738236 -0.437326 -1.315365 2.322320 -0.369856 0.180378 -0.525026 -0.378842 -0.267243 0.353207 -1.431117 5.210430 3.754574 0.000000 0.000000 0.000000 -2.317097 1.376573 0.963945 -0.204811 0.996001 -1.248912 0.133423 -2.133303 -1.515955 0.000000 0.000000 0.000000 -0.779971 0.204355 0.022254 0.177661 0.375349 2.875152 -0.300578 -0.735421 -0.781925 0.000000 0.000000 0.000000 3.569342 -0.682348 1.692964 3.596784 0.307071 0.071831 3.552933 -2.855408 1.315149 0.000000 0.000000 0.000000 -3.817729 -0.189948 0.413560 -3.785490 0.016518 -0.631403 -3.750604 -1.513634 -1.606194 0.000000 0.000000 0.000000 
-2936.558350 878.869995 1145.536987 6.282268 -2.326263 -1.737518 -0.434439 -1.309037 2.310989 -0.367407 0.179623 -0.524370 -0.376322 -0.264143 0.352681 -1.431368 5.218129 3.756086 0.000000 0.000000 0.000000 -2.319061 1.378990 1.025431 -0.210573 0.998653 -1.287472 0.132562 -2.128104 -1.515794 0.000000 0.000000 0.000000 -0.771702 0.217784 -0.006396 0.187528 0.389064 2.923860 -0.293657 -0.699016 -0.787429 0.000000 0.000000 0.000000 3.582613 -0.691942 1.684537 3.609342 0.312408 0.069292 3.563922 -2.836424 1.321955 0.000000 0.000000 0.000000 -3.803168 -0.202621 0.406715 -3.768785 0.045261 -0.638868 -3.737300 -1.521410 -1.598805 0.000000 0.000000 0.000000 
-2936.515625 879.045898 1145.489990 6.244324 -2.322968 -1.735715 -0.430363 -1.301988 2.296312 -0.363856 0.178060 -0.521820 -0.372683 -0.260951 0.351045 -1.431580 5.223578 3.757475 0.000000 0.000000 0.000000 -2.324932 1.383727 1.087352 -0.216253 1.002919 -1.325363 0.132482 -2.124736 -1.512818 0.000000 0.000000 0.000000 -0.764744 0.232451 -0.035803 0.198135 0.404381 2.976179 -0.286191 -0.663406 -0.788956 0.000000 0.000000 0.000000 3.596098 -0.700741 1.673995 3.622032 0.317203 0.067855 3.575117 -2.816465 1.328946 0.000000 0.000000 0.000000 -3.788716 -0.212758 0.397330 -3.752628 0.069889 -0.644073 -3.723960 -1.527092 -1.591665 0.000000 0.000000 0.000000 
-2936.480957 879.229492 1145.441040 6.207972 -2.321356 -1.732973 -0.425861 -1.294024 2.278035 -0.359947 0.176651 -0.517010 -0.368657 -0.256272 0.347500 -1.430894 5.224766 3.756530 0.000000 0.000000 0.000000 -2.332174 1.390347 1.150795 -0.221808 1.008795 -1.362552 0.133271 -2.124249 -1.507592 0.000000 0.000000 0.000000 -0.757833 0.247140 -0.066571 0.209583 0.419874 3.032171 -0.277613 -0.629033 -0.782874 0.000000 0.000000 0.000000 3.609286 -0.707211 1.661084 3.634401 0.320431 0.067801 3.586043 -2.794406 1.336019 0.000000 0.000000 0.000000 -3.774758 -0.218552 0.384544 -3.737655 0.088233 -0.645519 -3.710898 -1.530174 -1.584989 0.000000 0.000000 0.000000 
-2936.451660 879.417847 1145.389038 6.171401 -2.320271 -1.729155 -0.420141 -1.286006 2.256918 -0.354852 0.175060 -0.511926 -0.363446 -0.251873 0.343951 -1.430100 5.224456 3.755256 0.000000 0.000000 0.000000 -2.343020 1.399535 1.214766 -0.227357 1.016601 -1.399672 0.135013 -2.126140 -1.499080 0.000000 0.000000 0.000000 -0.752048 0.263194 -0.098235 0.221760 0.437060 3.091861 -0.268538 -0.595878 -0.772574 0.000000 0.000000 0.000000 3.622718 -0.713270 1.646163 3.646925 0.323315 0.068665 3.597174 -2.771217 1.343293 0.000000 0.000000 0.000000 -3.760744 -0.222258 0.369247 -3.723026 0.102821 -0.644572 -3.697631 -1.531585 -1.578428 0.000000 0.000000 0.000000 
-2936.418457 879.605347 1145.328979 6.134287 -2.318516 -1.723296 -0.414684 -1.279740 2.231481 -0.350066 0.171343 -0.504919 -0.358485 -0.246104 0.339288 -1.429071 5.222772 3.753402 0.000000 0.000000 0.000000 -2.355672 1.410140 1.279963 -0.232965 1.025502 -1.437602 0.137575 -2.129412 -1.487040 0.000000 0.000000 0.000000 -0.741795 0.281092 -0.129698 0.234405 0.455368 3.154676 -0.259327 -0.562644 -0.761585 0.000000 0.000000 0.000000 3.636574 -0.719356 1.629388 3.659867 0.325024 0.068780 3.608504 -2.746473 1.350810 0.000000 0.000000 0.000000 -3.746528 -0.224934 0.352457 -3.708436 0.113869 -0.644585 -3.684289 -1.531808 -1.571982 0.000000 0.000000 0.000000 
-2936.376221 879.794250 1145.264038 6.116794 -2.300287 -1.713020 -0.417339 -1.294737 2.200812 -0.352729 0.167214 -0.500515 -0.360990 -0.241174 0.335942 -1.428266 5.225131 3.752017 0.000000 0.000000 0.000000 -2.373086 1.424300 1.343278 -0.238453 1.037108 -1.473731 0.141069 -2.133899 -1.470630 0.000000 0.000000 0.000000 -0.722443 0.303613 -0.161717 0.247756 0.476789 3.222093 -0.250244 -0.528096 -0.752820 0.000000 0.000000 0.000000 3.644127 -0.739244 1.606359 3.666014 0.324166 0.069089 3.613264 -2.720498 1.355509 0.000000 0.000000 0.000000 -3.739281 -0.245733 0.332211 -3.700092 0.120752 -0.645515 -3.676586 -1.528236 -1.568714 0.000000 0.000000 0.000000 
-2936.330811 879.983276 1145.192993 6.098569 -2.281427 -1.700877 -0.420212 -1.310640 2.167833 -0.355676 0.159439 -0.497035 -0.363682 -0.234083 0.332494 -1.427006 5.226534 3.749493 0.000000 0.000000 0.000000 -2.391936 1.439939 1.408510 -0.244139 1.049955 -1.511807 0.145508 -2.140150 -1.450337 0.000000 0.000000 0.000000 -0.699045 0.328023 -0.193983 0.261599 0.499459 3.293383 -0.241152 -0.493612 -0.743893 0.000000 0.000000 0.000000 3.652398 -0.759217 1.581686 3.672883 0.322285 0.068411 3.618475 -2.692657 1.360596 0.000000 0.000000 0.000000 -3.731676 -0.265406 0.310436 -3.691645 0.124042 -0.647178 -3.668638 -1.523349 -1.565495 0.000000 0.000000 0.000000 
-2936.282227 880.162476 1145.098999 6.020787 -2.304649 -1.693157 -0.401631 -1.282810 2.137965 -0.338600 0.153621 -0.487676 -0.346285 -0.222880 0.327305 -1.421736 5.210824 3.736811 0.000000 0.000000 0.000000 -2.403945 1.451419 1.479341 -0.250237 1.059872 -1.556987 0.150738 -2.149139 -1.428089 0.000000 0.000000 0.000000 -0.682534 0.348114 -0.225882 0.274917 0.518948 3.363373 -0.232061 -0.465276 -0.727656 0.000000 0.000000 0.000000 3.679360 -0.741431 1.567763 3.699779 0.322855 0.064487 3.642341 -2.663439 1.374167 0.000000 0.000000 0.000000 -3.702184 -0.231038 0.293688 -3.664152 0.125753 -0.652008 -3.643417 -1.527726 -1.552837 0.000000 0.000000 0.000000 
-2936.353027 880.303650 1144.975952 5.865237 -2.408499 -1.679394 -0.351524 -1.162555 2.100135 -0.293124 0.149004 -0.469288 -0.300285 -0.201858 0.316081 -1.411149 5.162296 3.710787 0.000000 0.000000 0.000000 -2.405886 1.444641 1.577232 -0.258410 1.053441 -1.630865 0.155714 -2.150793 -1.399487 0.000000 0.000000 0.000000 -0.695781 0.345399 -0.270631 0.289794 0.521221 3.489930 -0.227706 -0.430973 -0.744415 0.000000 0.000000 0.000000 3.731664 -0.655485 1.557290 3.753684 0.332664 0.055025 3.691309 -2.629292 1.399432 0.000000 0.000000 0.000000 -3.644797 -0.110169 0.269574 -3.613176 0.133584 -0.661583 -3.597107 -1.539207 -1.529174 0.000000 0.000000 0.000000 
-2936.420654 880.435974 1144.832031 5.649810 -2.554925 -1.669757 -0.279783 -0.997617 2.067213 -0.227440 0.145168 -0.446838 -0.233978 -0.175605 0.302724 -1.396780 5.095747 3.675132 0.000000 0.000000 0.000000 -2.401392 1.433468 1.681779 -0.267031 1.043767 -1.712664 0.161637 -2.155664 -1.368492 0.000000 0.000000 0.000000 -0.716454 0.338034 -0.314897 0.304203 0.520093 3.615379 -0.223242 -0.402350 -0.753831 0.000000 0.000000 0.000000 3.802990 -0.531168 1.557807 3.828071 0.344679 0.042040 3.759295 -2.593104 1.433409 0.000000 0.000000 0.000000 -3.565314 0.065541 0.250620 -3.543023 0.139411 -0.674511 -3.533353 -1.558951 -1.496108 0.000000 0.000000 0.000000 
-2936.124756 880.637329 1144.668945 5.369814 -2.671870 -1.702242 -0.196747 -0.882831 2.088793 -0.148345 0.140924 -0.440662 -0.154360 -0.152450 0.304692 -1.379006 5.033866 3.630687 0.000000 0.000000 0.000000 -2.382360 1.452434 1.735492 -0.271700 1.066549 -1.745941 0.171620 -2.194614 -1.349035 0.000000 0.000000 0.000000 -0.678476 0.373384 -0.313820 0.310356 0.549774 3.556545 -0.204025 -0.418271 -0.629577 0.000000 0.000000 0.000000 3.892704 -0.421522 1.604839 3.922850 0.341554 0.028042 3.846324 -2.565169 1.475181 0.000000 0.000000 0.000000 -3.461242 0.252083 0.280755 -3.449094 0.122140 -0.687915 -3.447455 -1.603049 -1.449372 0.000000 0.000000 0.000000 
